<?xml version="1.0" encoding="utf-8"?>
<!-- Generator: Adobe Illustrator 21.0.0, SVG Export Plug-In . SVG Version: 6.00 Build 0)  -->
<svg version="1.1" id="Layer_1" xmlns="http://www.w3.org/2000/svg" xmlns:xlink="http://www.w3.org/1999/xlink" x="0px" y="0px"
	 width="35.149px" height="18.932px" viewBox="0 0 35.149 18.932" enable-background="new 0 0 35.149 18.932" xml:space="preserve">
<path fill="#1C226B" d="M13.295,0.227L8.703,11.153H5.717L3.465,2.424c-0.143-0.537-0.252-0.732-0.678-0.96
	C2.113,1.098,0.984,0.762,0,0.536l0.057-0.309h4.816c0.621,0,1.154,0.394,1.295,1.125L7.35,7.689l2.932-7.435h3.014V0.227z
	 M25.01,7.579c0-2.876-3.998-3.042-3.971-4.34c0-0.393,0.394-0.815,1.213-0.927c0.394-0.058,1.519-0.086,2.787,0.475l0.506-2.306
	C24.873,0.227,23.998,0,22.9,0c-2.789,0-4.762,1.494-4.791,3.606c-0.027,1.577,1.41,2.449,2.479,2.986
	c1.1,0.534,1.467,0.872,1.467,1.352c0,0.731-0.875,1.069-1.689,1.069c-1.438,0.026-2.256-0.394-2.904-0.704l-0.506,2.395
	c0.647,0.308,1.887,0.561,3.156,0.592C23.039,11.324,24.984,9.859,25.01,7.579 M32.391,11.153h2.619L32.729,0.227h-2.424
	c-0.533,0-1.014,0.309-1.209,0.787l-4.254,10.139h2.957l0.592-1.631h3.635L32.391,11.153z M29.236,7.267l1.494-4.112l0.844,4.112
	H29.236z M17.322,0.227l-2.338,10.926h-2.816l2.338-10.926H17.322z"/>
<g>
	<path d="M13.441,13.258h2.277c0.773,0,1.373,0.274,1.798,0.823c0.38,0.495,0.57,1.129,0.57,1.902c0,0.597-0.112,1.136-0.337,1.619
		c-0.396,0.852-1.075,1.278-2.04,1.278h-2.269V13.258z M15.564,18.229c0.258,0,0.47-0.027,0.635-0.081
		c0.296-0.1,0.538-0.291,0.727-0.574c0.151-0.227,0.259-0.518,0.326-0.873c0.038-0.212,0.057-0.408,0.057-0.589
		c0-0.696-0.138-1.237-0.415-1.623c-0.277-0.385-0.723-0.578-1.337-0.578h-1.351v4.316H15.564z"/>
	<path d="M21.527,14.893c0.273,0.137,0.48,0.313,0.624,0.53c0.138,0.207,0.229,0.448,0.275,0.724
		c0.041,0.188,0.062,0.49,0.062,0.903h-3.004c0.013,0.416,0.111,0.749,0.294,1c0.184,0.251,0.468,0.377,0.854,0.377
		c0.359,0,0.646-0.119,0.861-0.356c0.123-0.138,0.209-0.297,0.26-0.478h0.677c-0.018,0.15-0.077,0.318-0.178,0.503
		c-0.101,0.185-0.214,0.337-0.339,0.454c-0.209,0.204-0.468,0.342-0.777,0.413c-0.166,0.041-0.353,0.062-0.563,0.062
		c-0.51,0-0.942-0.186-1.297-0.557c-0.355-0.372-0.532-0.891-0.532-1.559c0-0.658,0.179-1.192,0.536-1.604
		c0.358-0.411,0.824-0.616,1.401-0.616C20.972,14.689,21.253,14.757,21.527,14.893z M21.779,16.502
		c-0.028-0.298-0.093-0.537-0.195-0.715c-0.189-0.332-0.504-0.498-0.945-0.498c-0.316,0-0.581,0.114-0.796,0.342
		c-0.214,0.228-0.328,0.518-0.34,0.871H21.779z M21.477,13.131l-1.022,1.106h-0.528l0.7-1.106H21.477z"/>
	<path d="M23.279,13.239h0.669v2.04c0.15-0.197,0.331-0.347,0.539-0.45c0.21-0.104,0.437-0.155,0.681-0.155
		c0.51,0,0.924,0.176,1.242,0.526c0.318,0.351,0.477,0.868,0.477,1.552c0,0.648-0.157,1.186-0.471,1.615
		c-0.314,0.429-0.749,0.642-1.305,0.642c-0.312,0-0.574-0.075-0.789-0.226c-0.128-0.089-0.264-0.232-0.409-0.429v0.524h-0.635
		V13.239z M25.906,17.956c0.185-0.296,0.277-0.686,0.277-1.171c0-0.431-0.093-0.788-0.277-1.071
		c-0.185-0.283-0.458-0.425-0.817-0.425c-0.314,0-0.589,0.116-0.825,0.348c-0.236,0.232-0.354,0.615-0.354,1.148
		c0,0.385,0.048,0.698,0.146,0.938c0.181,0.452,0.519,0.677,1.014,0.677C25.442,18.4,25.721,18.252,25.906,17.956z"/>
	<path d="M27.691,13.258h0.701v0.78h-0.701V13.258z M27.691,14.8h0.701v4.079h-0.701V14.8z"/>
	<path d="M29.57,13.637h0.696v1.144h0.654v0.563h-0.654v2.675c0,0.143,0.048,0.238,0.146,0.287c0.053,0.028,0.142,0.042,0.267,0.042
		c0.033,0,0.069-0.001,0.108-0.002c0.038-0.001,0.083-0.004,0.134-0.01v0.543c-0.079,0.023-0.162,0.04-0.247,0.05
		c-0.086,0.01-0.178,0.015-0.278,0.015c-0.321,0-0.54-0.082-0.654-0.247c-0.115-0.164-0.172-0.378-0.172-0.641v-2.713h-0.555v-0.563
		h0.555V13.637z"/>
	<path d="M34.602,15.19c0.365,0.352,0.547,0.87,0.547,1.554c0,0.661-0.161,1.207-0.482,1.638c-0.321,0.431-0.82,0.647-1.496,0.647
		c-0.564,0-1.012-0.191-1.343-0.572c-0.332-0.381-0.498-0.893-0.498-1.536c0-0.689,0.175-1.237,0.524-1.645
		c0.35-0.408,0.819-0.612,1.408-0.612C33.791,14.662,34.237,14.838,34.602,15.19z M34.175,17.917
		c0.169-0.346,0.254-0.73,0.254-1.154c0-0.382-0.061-0.694-0.183-0.934c-0.194-0.377-0.528-0.566-1.003-0.566
		c-0.421,0-0.727,0.161-0.918,0.482c-0.191,0.321-0.287,0.709-0.287,1.163c0,0.436,0.096,0.8,0.287,1.091
		c0.191,0.291,0.495,0.436,0.911,0.436C33.692,18.435,34.006,18.262,34.175,17.917z"/>
</g>
</svg>
