<?xml version="1.0" encoding="utf-8"?>
<!-- Generator: Adobe Illustrator 16.0.0, SVG Export Plug-In . SVG Version: 6.00 Build 0)  -->
<!DOCTYPE svg PUBLIC "-//W3C//DTD SVG 1.1//EN" "http://www.w3.org/Graphics/SVG/1.1/DTD/svg11.dtd">
<svg version="1.1" id="Layer_1" xmlns="http://www.w3.org/2000/svg" xmlns:xlink="http://www.w3.org/1999/xlink" x="0px" y="0px"
	 width="39.365px" height="39.256px" viewBox="0 0 39.365 39.256" enable-background="new 0 0 39.365 39.256" xml:space="preserve">
<g>
	<g>
		<path fill="#211915" d="M7.131,30.443v-2.027c0-0.777-0.475-1.283-1.249-1.283c-0.407,0-0.844,0.133-1.149,0.572
			c-0.236-0.371-0.574-0.572-1.083-0.572c-0.337,0-0.708,0.098-0.979,0.473v-0.406H2.027v3.244H2.67v-1.859
			c0-0.574,0.34-0.848,0.812-0.848c0.474,0,0.742,0.307,0.742,0.848v1.859h0.644v-1.859c0-0.574,0.337-0.848,0.81-0.848
			c0.474,0,0.743,0.307,0.743,0.848v1.859H7.131z M17.671,27.199h-1.182v-0.98h-0.644v0.98h-0.675v0.574h0.675v1.52
			c0,0.744,0.272,1.184,1.084,1.184c0.305,0,0.641-0.102,0.877-0.238l-0.202-0.572c-0.202,0.137-0.437,0.168-0.607,0.168
			c-0.34,0-0.508-0.199-0.508-0.541v-1.52h1.182V27.199z M23.686,27.133c-0.404,0-0.707,0.201-0.879,0.473v-0.406h-0.639v3.244
			h0.639v-1.826c0-0.537,0.271-0.881,0.709-0.881c0.138,0,0.307,0.037,0.441,0.072l0.202-0.609
			C24.023,27.133,23.822,27.133,23.686,27.133 M14.598,27.469c-0.337-0.238-0.811-0.336-1.318-0.336
			c-0.81,0-1.317,0.371-1.317,1.012c0,0.537,0.37,0.844,1.08,0.945l0.339,0.035c0.371,0.068,0.609,0.203,0.609,0.373
			c0,0.234-0.27,0.402-0.779,0.402c-0.505,0-0.844-0.168-1.08-0.338l-0.339,0.508c0.474,0.336,1.046,0.406,1.388,0.406
			c0.945,0,1.451-0.439,1.451-1.049c0-0.57-0.404-0.844-1.115-0.945l-0.336-0.033c-0.306-0.033-0.576-0.137-0.576-0.338
			c0-0.236,0.271-0.406,0.645-0.406c0.404,0,0.809,0.17,1.013,0.271L14.598,27.469z M24.396,28.82c0,0.982,0.643,1.689,1.689,1.689
			c0.474,0,0.812-0.104,1.147-0.371l-0.336-0.504c-0.27,0.199-0.54,0.299-0.846,0.299c-0.572,0-1.013-0.436-1.013-1.076
			c0-0.646,0.44-1.084,1.013-1.084c0.306,0,0.576,0.102,0.846,0.307l0.336-0.512c-0.336-0.268-0.674-0.369-1.147-0.369
			C25.072,27.133,24.396,27.84,24.396,28.82 M19.869,27.133c-0.947,0-1.59,0.676-1.59,1.688c0,1.014,0.678,1.689,1.656,1.689
			c0.473,0,0.947-0.135,1.316-0.439l-0.336-0.475c-0.27,0.207-0.608,0.338-0.945,0.338c-0.44,0-0.914-0.268-0.98-0.844h2.398v-0.27
			C21.389,27.809,20.78,27.133,19.869,27.133 M19.834,27.705c0.474,0,0.813,0.305,0.847,0.811h-1.759
			C19.025,28.08,19.328,27.705,19.834,27.705 M11.083,28.82v-1.621h-0.642v0.406c-0.235-0.305-0.576-0.473-1.047-0.473
			c-0.912,0-1.59,0.707-1.59,1.688c0,0.982,0.678,1.689,1.59,1.689c0.471,0,0.812-0.17,1.047-0.473v0.406h0.642V28.82z M8.482,28.82
			c0-0.609,0.372-1.084,1.014-1.084c0.609,0,0.979,0.475,0.979,1.084c0,0.641-0.406,1.08-0.979,1.08
			C8.854,29.9,8.482,29.428,8.482,28.82 M33.452,27.133c-0.405,0-0.712,0.201-0.88,0.473v-0.406h-0.641v3.244h0.641v-1.826
			c0-0.537,0.271-0.881,0.711-0.881c0.135,0,0.304,0.037,0.438,0.072l0.203-0.609C33.789,27.133,33.587,27.133,33.452,27.133
			 M38.656,29.971c0.033,0,0.1,0,0.134,0.033c0.033,0,0.068,0.033,0.103,0.066c0.033,0.037,0.064,0.068,0.064,0.102
			c0.035,0.033,0.035,0.066,0.035,0.135c0,0.033,0,0.1-0.035,0.137c-0.031,0.033-0.031,0.066-0.064,0.1
			c-0.034,0.037-0.069,0.068-0.103,0.068c-0.034,0.033-0.069,0.033-0.134,0.033c-0.035,0-0.104,0-0.137-0.033
			c-0.034-0.031-0.067-0.031-0.102-0.068c-0.033-0.033-0.066-0.066-0.066-0.1c-0.035-0.037-0.035-0.068-0.035-0.137
			c0-0.031,0-0.102,0.035-0.135c0.033-0.033,0.033-0.064,0.066-0.102c0.034-0.033,0.067-0.066,0.102-0.066
			C38.553,29.971,38.621,29.971,38.656,29.971 M38.656,30.543c0.033,0,0.064,0,0.1-0.033c0.034,0,0.067-0.033,0.067-0.066
			l0.069-0.068c0-0.035,0.033-0.068,0.033-0.1c0-0.037,0-0.07-0.033-0.104c0-0.033-0.034-0.064-0.069-0.064l-0.067-0.07
			c-0.035,0-0.066-0.033-0.1-0.033c-0.035,0-0.07,0-0.104,0.033c-0.033,0-0.067,0.033-0.067,0.07
			c-0.033,0.031-0.033,0.031-0.067,0.064c0,0.033-0.033,0.066-0.033,0.104c0,0.031,0,0.064,0.033,0.1
			c0,0.031,0.034,0.068,0.067,0.068l0.067,0.066C38.586,30.543,38.621,30.543,38.656,30.543 M38.689,30.139
			c0.031,0,0.066,0,0.101,0.033c0.033,0.033,0.033,0.033,0.033,0.066c0,0.037,0,0.037-0.033,0.068c0,0-0.034,0.033-0.069,0.033
			l0.103,0.104h-0.067l-0.1-0.104h-0.035v0.104h-0.068v-0.305H38.689z M38.586,30.205v0.07h0.07h0.033v-0.037v-0.033h-0.033H38.586z
			 M30.951,28.82v-1.621h-0.643v0.406c-0.236-0.305-0.575-0.473-1.048-0.473c-0.911,0-1.588,0.707-1.588,1.688
			c0,0.982,0.677,1.689,1.588,1.689c0.473,0,0.812-0.17,1.048-0.473v0.406h0.643V28.82z M28.35,28.82
			c0-0.609,0.371-1.084,1.013-1.084c0.609,0,0.98,0.475,0.98,1.084c0,0.641-0.405,1.08-0.98,1.08
			C28.721,29.9,28.35,29.428,28.35,28.82 M37.471,28.82v-2.904H36.83v1.689c-0.238-0.305-0.574-0.473-1.047-0.473
			c-0.912,0-1.587,0.707-1.587,1.688c0,0.982,0.675,1.689,1.587,1.689c0.473,0,0.809-0.17,1.047-0.473v0.406h0.641V28.82z
			 M34.871,28.82c0-0.609,0.371-1.084,1.012-1.084c0.609,0,0.981,0.475,0.981,1.084c0,0.641-0.406,1.08-0.981,1.08
			C35.242,29.9,34.871,29.428,34.871,28.82"/>
		<rect x="13.854" y="2.598" fill="#CA5D33" width="11.724" height="19.129"/>
		<path fill="#C23033" d="M15.036,12.164c0-3.887,1.825-7.334,4.63-9.563C17.604,0.979,15.004,0,12.166,0C5.441,0,0,5.439,0,12.164
			c0,6.723,5.441,12.164,12.166,12.164c2.838,0,5.438-0.982,7.5-2.602C16.861,19.496,15.036,16.049,15.036,12.164"/>
		<path fill="#DA9532" d="M38.217,19.697v-0.406h0.168v-0.066h-0.407v0.066h0.171v0.406H38.217z M38.992,19.697v-0.473h-0.134
			l-0.138,0.338l-0.135-0.338h-0.134v0.473h0.101v-0.369l0.137,0.305h0.101l0.136-0.305v0.369H38.992z"/>
		<path fill="#DA9532" d="M39.365,12.164c0,6.723-5.441,12.164-12.165,12.164c-2.839,0-5.442-0.982-7.501-2.602
			c2.838-2.23,4.629-5.678,4.629-9.563c0-3.887-1.825-7.334-4.629-9.563C21.758,0.979,24.361,0,27.2,0
			C33.924,0,39.365,5.439,39.365,12.164"/>
	</g>
	<g>
		<path d="M11.466,35.265c-0.154-0.781-0.781-1.176-1.547-1.176c-1.314,0-1.872,1.083-1.872,2.236c0,1.261,0.558,2.313,1.88,2.313
			c0.967,0,1.524-0.681,1.594-1.594h0.734c-0.139,1.377-0.997,2.212-2.39,2.212c-1.718,0-2.554-1.269-2.554-2.878
			c0-1.601,0.914-2.909,2.615-2.909c1.152,0,2.104,0.619,2.275,1.795H11.466z"/>
		<path d="M13.034,35.125h0.619v0.843h0.016c0.317-0.642,0.758-0.959,1.471-0.936v0.696c-1.061,0-1.447,0.603-1.447,1.617v1.779
			h-0.658V35.125z"/>
		<path d="M18.905,37.856c-0.178,0.882-0.812,1.361-1.709,1.361c-1.277,0-1.88-0.882-1.919-2.104c0-1.199,0.789-2.081,1.88-2.081
			c1.416,0,1.85,1.323,1.811,2.29h-2.994c-0.023,0.696,0.371,1.315,1.246,1.315c0.541,0,0.92-0.263,1.036-0.781H18.905z
			 M18.271,36.742c-0.03-0.626-0.503-1.129-1.153-1.129c-0.688,0-1.098,0.518-1.145,1.129H18.271z M17.273,33.47h0.843l-1.013,1.106
			h-0.495L17.273,33.47z"/>
		<path d="M23.222,39.125h-0.658v-0.542h-0.016c-0.217,0.441-0.727,0.634-1.276,0.634c-1.229,0-1.841-0.975-1.841-2.104
			c0-1.13,0.604-2.081,1.825-2.081c0.41,0,0.998,0.155,1.292,0.626h0.016v-2.058h0.658V39.125z M21.364,38.638
			c0.882,0,1.223-0.758,1.223-1.509c0-0.789-0.355-1.516-1.262-1.516c-0.896,0-1.199,0.766-1.199,1.547
			C20.126,37.911,20.514,38.638,21.364,38.638z"/>
		<path d="M24.93,34.406h-0.657v-0.804h0.657V34.406z M24.272,35.125h0.657v4h-0.657V35.125z"/>
		<path d="M26.862,35.125h0.797v0.58h-0.797v2.483c0,0.302,0.086,0.356,0.496,0.356h0.301v0.58h-0.502
			c-0.682,0-0.952-0.139-0.952-0.874v-2.545h-0.681v-0.58h0.681v-1.199h0.657V35.125z"/>
		<path d="M30.11,35.033c1.27,0,1.942,0.92,1.942,2.096c0,1.168-0.673,2.089-1.942,2.089c-1.268,0-1.941-0.92-1.941-2.089
			C28.169,35.953,28.843,35.033,30.11,35.033z M30.11,38.638c0.689,0,1.246-0.542,1.246-1.509c0-0.975-0.557-1.516-1.246-1.516
			c-0.688,0-1.245,0.542-1.245,1.516C28.865,38.096,29.423,38.638,30.11,38.638z"/>
	</g>
</g>
</svg>
