<?xml version="1.0" encoding="utf-8"?>
<!-- Generator: Adobe Illustrator 16.0.0, SVG Export Plug-In . SVG Version: 6.00 Build 0)  -->
<!DOCTYPE svg PUBLIC "-//W3C//DTD SVG 1.1//EN" "http://www.w3.org/Graphics/SVG/1.1/DTD/svg11.dtd">
<svg version="1.1" id="Layer_1" xmlns="http://www.w3.org/2000/svg" xmlns:xlink="http://www.w3.org/1999/xlink" x="0px" y="0px"
	 width="35.149px" height="18.932px" viewBox="0 0 35.149 18.932" enable-background="new 0 0 35.149 18.932" xml:space="preserve">
<g>
	<g>
		<path d="M14.563,14.94c-0.155-0.781-0.781-1.176-1.547-1.176c-1.315,0-1.873,1.083-1.873,2.236c0,1.261,0.557,2.313,1.88,2.313
			c0.967,0,1.524-0.681,1.594-1.594h0.735c-0.139,1.377-0.998,2.212-2.39,2.212c-1.718,0-2.553-1.269-2.553-2.878
			c0-1.601,0.913-2.909,2.615-2.909c1.153,0,2.104,0.619,2.275,1.795H14.563z"/>
		<path d="M16.131,14.801h0.619v0.843h0.016c0.317-0.642,0.758-0.959,1.47-0.936v0.696c-1.06,0-1.447,0.603-1.447,1.617V18.8h-0.658
			V14.801z"/>
		<path d="M22.002,17.532c-0.178,0.882-0.812,1.361-1.709,1.361c-1.277,0-1.88-0.882-1.919-2.104c0-1.199,0.789-2.081,1.88-2.081
			c1.416,0,1.849,1.323,1.811,2.29H19.07c-0.023,0.696,0.372,1.315,1.246,1.315c0.542,0,0.921-0.263,1.037-0.781H22.002z
			 M21.368,16.417c-0.031-0.626-0.503-1.129-1.153-1.129c-0.688,0-1.099,0.518-1.145,1.129H21.368z M20.37,13.145h0.843L20.2,14.251
			h-0.495L20.37,13.145z"/>
		<path d="M26.318,18.8H25.66v-0.542h-0.016c-0.216,0.441-0.727,0.634-1.276,0.634c-1.23,0-1.841-0.975-1.841-2.104
			c0-1.13,0.604-2.081,1.826-2.081c0.41,0,0.998,0.155,1.292,0.626h0.016v-2.058h0.658V18.8z M24.461,18.313
			c0.882,0,1.223-0.758,1.223-1.509c0-0.789-0.356-1.516-1.261-1.516c-0.897,0-1.199,0.766-1.199,1.547
			C23.223,17.586,23.61,18.313,24.461,18.313z"/>
		<path d="M28.026,14.081h-0.658v-0.804h0.658V14.081z M27.369,14.801h0.658v4h-0.658V14.801z"/>
		<path d="M29.959,14.801h0.796v0.58h-0.796v2.483c0,0.302,0.085,0.356,0.495,0.356h0.301v0.58h-0.502
			c-0.681,0-0.952-0.139-0.952-0.874v-2.545h-0.681v-0.58h0.681v-1.199h0.658V14.801z"/>
		<path d="M33.208,14.708c1.269,0,1.942,0.92,1.942,2.096c0,1.168-0.673,2.089-1.942,2.089c-1.269,0-1.942-0.92-1.942-2.089
			C31.266,15.628,31.939,14.708,33.208,14.708z M33.208,18.313c0.688,0,1.246-0.542,1.246-1.509c0-0.975-0.557-1.516-1.246-1.516
			s-1.246,0.542-1.246,1.516C31.962,17.771,32.519,18.313,33.208,18.313z"/>
	</g>
	<path fill="#1C226B" d="M13.295,0.228L8.703,11.153H5.717L3.465,2.424c-0.143-0.537-0.252-0.732-0.678-0.96
		C2.113,1.098,0.984,0.762,0,0.536l0.057-0.309h4.816c0.621,0,1.154,0.394,1.295,1.125L7.35,7.689l2.932-7.436h3.014V0.228z
		 M25.01,7.579c0-2.876-3.998-3.042-3.971-4.34c0-0.393,0.395-0.815,1.213-0.927c0.395-0.058,1.52-0.086,2.787,0.476l0.506-2.306
		C24.873,0.228,23.998,0,22.9,0c-2.789,0-4.762,1.494-4.791,3.606c-0.027,1.577,1.41,2.449,2.479,2.986
		c1.1,0.534,1.467,0.872,1.467,1.352c0,0.73-0.875,1.069-1.689,1.069c-1.438,0.026-2.256-0.395-2.904-0.704l-0.506,2.395
		c0.646,0.308,1.887,0.562,3.156,0.592C23.039,11.324,24.984,9.859,25.01,7.579 M32.391,11.153h2.619L32.729,0.228h-2.424
		c-0.533,0-1.014,0.309-1.209,0.787l-4.254,10.139h2.957l0.592-1.631h3.635L32.391,11.153z M29.236,7.268l1.494-4.112l0.844,4.112
		H29.236z M17.322,0.228l-2.338,10.926h-2.816l2.338-10.926H17.322z"/>
</g>
</svg>
